<?xml version="1.0"?>
<svg xmlns="http://www.w3.org/2000/svg" xmlns:xlink="http://www.w3.org/1999/xlink" version="1.1" id="Layer_1" x="0px" y="0px" viewBox="0 0 512.002 512.002" style="enable-background:new 0 0 512.002 512.002;" xml:space="preserve" width="512px" height="512px"><g><g>
	<g>
		<path d="M400.793,466.072l-52.684-93.02c-2.042-3.603-6.615-4.869-10.218-2.828c-3.603,2.04-4.869,6.615-2.829,10.218    l52.684,93.02c2.119,3.741,2.62,8.073,1.412,12.198c-1.208,4.126-3.968,7.503-7.77,9.509c-3.802,2.006-8.148,2.377-12.235,1.046    c-4.088-1.331-7.381-4.191-9.272-8.051L148.764,57.313c-1.232-2.514-3.763-4.133-6.562-4.196    c-6.348-0.144-13.166-5.08-16.966-12.282c-5.11-9.685-3.534-20.977,3.441-24.657c6.975-3.678,17.185,1.393,22.296,11.079    c3.799,7.202,4.024,15.616,0.56,20.937c-1.528,2.347-1.62,5.349-0.241,7.785l160.13,282.725c2.042,3.602,6.614,4.871,10.218,2.828    c3.603-2.041,4.869-6.615,2.829-10.218l-42.245-74.588l92.678-189.14c10.107-1.971,19.627-9.333,25.126-19.756    c9.055-17.165,4.701-37.314-9.706-44.915c-14.41-7.601-33.497,0.178-42.553,17.343c-5.5,10.422-6.202,22.437-2.122,31.892    l-89.646,158.277L166.356,52.153c4.079-9.455,3.377-21.469-2.122-31.892C155.177,3.097,136.091-4.684,121.68,2.917    c-14.407,7.602-18.761,27.75-9.705,44.915c5.499,10.422,15.019,17.784,25.126,19.755l92.678,189.14L111.21,466.072    c-4.134,7.299-5.112,15.753-2.754,23.803c2.359,8.05,7.744,14.64,15.164,18.554c4.496,2.372,9.38,3.573,14.308,3.573    c3.203,0,6.424-0.508,9.567-1.531c7.976-2.598,14.402-8.177,18.093-15.71l90.414-184.518l90.413,184.518    c3.691,7.533,10.117,13.112,18.093,15.71c3.143,1.023,6.364,1.531,9.567,1.531c4.927,0,9.812-1.201,14.309-3.573    c7.419-3.915,12.804-10.504,15.162-18.554C405.904,481.824,404.927,473.371,400.793,466.072z M360.711,55.98    c1.379-2.437,1.287-5.439-0.241-7.785c-3.464-5.322-3.24-13.736,0.56-20.937c5.109-9.686,15.319-14.76,22.295-11.079    c6.975,3.68,8.551,14.972,3.441,24.657c-3.799,7.202-10.618,12.138-16.966,12.282c-2.799,0.063-5.329,1.682-6.562,4.196    l-89.967,183.607l-8.654-15.279L360.711,55.98z M152.123,488.163c-1.892,3.861-5.184,6.72-9.273,8.051    c-4.087,1.331-8.432,0.96-12.234-1.046c-3.803-2.006-6.562-5.383-7.771-9.509c-1.208-4.125-0.707-8.457,1.411-12.198    l113.516-200.422l9.881,20.165L152.123,488.163z" data-original="#000000" class="active-path" data-old_color="#000000" fill="#FFFFFF"/>
	</g>
</g></g> </svg>
