<?xml version="1.0"?>
<svg xmlns="http://www.w3.org/2000/svg" id="Capa_1" enable-background="new 0 0 511.994 511.994" height="512px" viewBox="0 0 511.994 511.994" width="512px"><g><path d="m296.99 267.255c-2.075-6.431-8.01-10.751-14.767-10.751h-2.695v-183.518l23.57-62.853c.864-2.304.543-4.884-.858-6.906-1.401-2.021-3.704-3.227-6.164-3.227h-24.047c-2.361 0-4.583 1.111-6 3l-10.269 13.692c-3.069-2.624-7.683-2.356-10.416.651-2.786 3.065-2.56 7.808.505 10.594l.878.799-8.072 10.763-.156-.142c-3.066-2.787-7.808-2.561-10.595.504s-2.561 7.809.504 10.595l1.207 1.097-11.68 15.573c-1.705 2.272-1.979 5.313-.708 7.854 1.27 2.541 3.867 4.146 6.708 4.146h8.532v177.378h-2.695c-6.757 0-12.691 4.32-14.767 10.752l-8.55 26.506c-1.272 3.942.893 8.169 4.835 9.44.766.247 1.542.364 2.304.364 3.167 0 6.112-2.022 7.136-5.199l8.55-26.505c.069-.214.267-.358.491-.358h2.695v8.531c0 8.556 6.96 15.516 15.516 15.516h.516v65.158h-8.531c-8.556 0-15.516 6.96-15.516 15.516v16.032c0 8.555 6.96 15.516 15.516 15.516h32.062c8.556 0 15.516-6.96 15.516-15.516v-16.032c0-8.555-6.96-15.516-15.516-15.516h-8.531v-65.158h.516c8.555 0 15.516-6.96 15.516-15.516v-8.531h2.695c.225 0 .422.144.491.357l70.826 219.561-73.101-57.437c-14.392-11.308-34.495-11.308-48.886 0l-73.101 57.437 51.933-160.99c1.272-3.942-.893-8.169-4.835-9.44-3.946-1.274-8.17.894-9.44 4.835l-55.02 170.562c-1.622 5.026.201 10.431 4.534 13.45 4.334 3.019 10.036 2.855 14.188-.408l81.008-63.65c8.935-7.021 21.416-7.021 30.351 0l81.009 63.65c2.171 1.706 4.765 2.564 7.366 2.564 2.374 0 4.754-.716 6.822-2.157 4.333-3.019 6.156-8.424 4.534-13.45zm-24.445 108.969v16.032c0 .284-.231.516-.516.516h-32.062c-.285 0-.516-.231-.516-.516v-16.032c0-.285.231-.516.516-.516h32.062c.284 0 .516.231.516.516zm-8.017-297.098v81.189h-17.062v-81.189zm0 129.283h-17.062v-33.094h17.062zm-17.062 15h17.062v25.079h-17.062zm28.312-208.409h9.475l-18.422 49.126h-27.897zm-11.25 265.035c0 .284-.231.516-.516.516h-16.031c-.284 0-.516-.231-.516-.516v-16.547h17.062v16.547z" data-original="#000000" class="active-path" data-old_color="#000000" fill="#FFFFFF"/><path d="m324.697 437.678c0-4.142-3.358-7.5-7.5-7.5h-.08c-4.142 0-7.46 3.358-7.46 7.5s3.398 7.5 7.54 7.5 7.5-3.358 7.5-7.5z" data-original="#000000" class="active-path" data-old_color="#000000" fill="#FFFFFF"/><path d="m309.167 413.422c0-4.142-3.358-7.5-7.5-7.5h-.081c-4.142 0-7.459 3.358-7.459 7.5 0 4.143 3.398 7.5 7.54 7.5s7.5-3.358 7.5-7.5z" data-original="#000000" class="active-path" data-old_color="#000000" fill="#FFFFFF"/><path d="m167.308 352.177c0-4.142-3.358-7.5-7.5-7.5h-48.094c-4.142 0-7.5 3.358-7.5 7.5 0 4.143 3.358 7.5 7.5 7.5h48.094c4.142 0 7.5-3.358 7.5-7.5z" data-original="#000000" class="active-path" data-old_color="#000000" fill="#FFFFFF"/><path d="m141.405 319.213 24.047 8.016c.787.262 1.586.387 2.373.387 3.14 0 6.066-1.988 7.114-5.13 1.31-3.93-.814-8.177-4.744-9.487l-24.047-8.016c-3.928-1.312-8.177.813-9.487 4.743-1.309 3.93.815 8.177 4.744 9.487z" data-original="#000000" class="active-path" data-old_color="#000000" fill="#FFFFFF"/><path d="m158.501 380.886c-1.852-3.705-6.357-5.207-10.062-3.354l-16.032 8.016c-3.705 1.853-5.207 6.357-3.354 10.062 1.314 2.629 3.962 4.148 6.714 4.148 1.127 0 2.271-.255 3.348-.793l16.032-8.016c3.705-1.853 5.206-6.358 3.354-10.063z" data-original="#000000" class="active-path" data-old_color="#000000" fill="#FFFFFF"/><path d="m400.28 344.677h-48.094c-4.142 0-7.5 3.358-7.5 7.5 0 4.143 3.358 7.5 7.5 7.5h48.094c4.142 0 7.5-3.357 7.5-7.5 0-4.142-3.358-7.5-7.5-7.5z" data-original="#000000" class="active-path" data-old_color="#000000" fill="#FFFFFF"/><path d="m344.17 327.616c.786 0 1.586-.125 2.373-.387l24.047-8.016c3.93-1.31 6.053-5.557 4.744-9.486-1.31-3.93-5.558-6.055-9.487-4.743l-24.047 8.016c-3.93 1.31-6.053 5.557-4.744 9.487 1.047 3.142 3.973 5.129 7.114 5.129z" data-original="#000000" class="active-path" data-old_color="#000000" fill="#FFFFFF"/><path d="m379.588 385.547-16.032-8.016c-3.705-1.853-8.21-.351-10.062 3.354-1.853 3.705-.351 8.21 3.354 10.063l16.032 8.016c1.077.538 2.221.793 3.348.793 2.751 0 5.4-1.52 6.714-4.148 1.852-3.704.351-8.209-3.354-10.062z" data-original="#000000" class="active-path" data-old_color="#000000" fill="#FFFFFF"/></g> </svg>
