<?xml version="1.0"?>
<svg xmlns="http://www.w3.org/2000/svg" xmlns:xlink="http://www.w3.org/1999/xlink" version="1.1" id="Capa_1" x="0px" y="0px" viewBox="0 0 508.017 508.017" style="enable-background:new 0 0 508.017 508.017;" xml:space="preserve" width="512px" height="512px"><g><g>
	<g>
		<rect x="234.999" y="205.259" transform="matrix(0.7071 -0.7071 0.7071 0.7071 -76.1046 243.1859)" width="41" height="16.4" data-original="#000000" class="active-path" data-old_color="#000000" fill="#FFFFFF"/>
	</g>
</g><g>
	<g>
		<path d="M438.209,30.718c-39.9-39.9-108.8-42-150.8,0c-32,32-31.2,73.2-31.2,73.2l2.7,2.7l-220.3,266.9l23,23    c-10.5,13.9-12.9,31.8-6.1,48.3c7.8,18.7,25.2,30.4,45.5,30.4h56.8c18.1,0,32.8,14.7,32.8,32.8h16.4c0-27.1-22.1-49.2-49.2-49.2    h-56.8c-16.2,0-26.3-10.5-30.3-20.3c-3.4-8.3-4.1-20,2.7-30.3l22.2,22.2l266.7-220.4l2.7,2.7c0,0,43.1-1.1,73.2-31.2    C479.809,139.918,479.809,72.318,438.209,30.718z M96.609,408.318l-35.9-35.9l36-43.6l43.4,43.4L96.609,408.318z M152.909,361.718    l-45.6-45.6l163.4-197.8l80,80.1L152.909,361.718z M371.409,195.918l-98.3-98.3c1.2-12.5,5-24.5,11-35.4l122.7,122.7    C396.009,190.918,384.009,194.718,371.409,195.918z M426.609,169.918c-1.9,1.9-4,3.8-6.1,5.5l-127-127c1.7-2.1,3.6-4.1,5.5-6.1    c35.3-35.3,93.9-33.7,127.6,0C461.809,77.518,461.809,134.718,426.609,169.918z" data-original="#000000" class="active-path" data-old_color="#000000" fill="#FFFFFF"/>
	</g>
</g></g> </svg>
