<?xml version="1.0"?>
<svg xmlns="http://www.w3.org/2000/svg" height="512px" viewBox="0 0 477 477.65581" width="512px"><g><path d="m336.425781 105.0625-228.875 236.503906 8.777344 8.777344 232.6875-232.6875zm0 0" data-original="#000000" class="active-path" data-old_color="#000000" fill="#FFFFFF"/><path d="m67.640625 349.652344 12.6875-12.6875 60.6875 60.683594-12.6875 12.691406zm0 0" data-original="#000000" class="active-path" data-old_color="#000000" fill="#FFFFFF"/><path d="m431.3125 15.953125-86.984375 57.984375v16.40625l43.3125 43.3125h16.40625l57.984375-86.984375zm0 0" data-original="#000000" class="active-path" data-old_color="#000000" fill="#FFFFFF"/><path d="m248.535156 325.65625h-16.207031c-7.550781 0-15.015625-1.59375-21.9375-4.535156l-62.65625 60.628906 15.90625 15.90625-35.3125 35.3125-83.3125-83.3125 35.3125-35.3125 15.902344 15.902344 81.183593-83.886719c2.128907-24.792969 7.539063-49.160156 16.273438-72.457031l4.632812-12.335938-164.296874 132.699219c-21.414063 17.292969-33.695313 43-33.695313 70.527344 0 24.214843 9.433594 46.984375 26.550781 64.101562l22.210938 22.210938c17.117187 17.117187 39.886718 26.550781 64.101562 26.550781h1.984375c26.367188 0 51.375-11.449219 68.609375-31.402344l116.40625-134.78125-33.945312 11.3125c-5.71875 1.902344-11.679688 2.871094-17.710938 2.871094zm-101.230468-102.320312 10.054687 12.449218-89.09375 71.957032-10.058594-12.445313zm-114.976563 141.457031-16 .824219v-.824219c0-5.6875.648437-11.378907 1.917969-16.898438l15.59375 3.601563c-1.007813 4.335937-1.511719 8.808594-1.511719 13.296875zm-7.265625-35.113281c3.519531-6.609376 8.007812-12.632813 13.351562-17.910157l11.25 11.375c-4.191406 4.152344-7.71875 8.878907-10.488281 14.0625zm90.113281 131.976562h-1.976562c-13.230469 0-26.199219-3.480469-37.519531-10.074219l8.054687-13.820312c8.875 5.167969 19.058594 7.894531 29.457031 7.894531h1.976563c14.367187 0 28.191406-5.25 38.929687-14.777344l10.621094 11.960938c-13.664062 12.136718-31.253906 18.816406-49.542969 18.816406zm0 0" data-original="#000000" class="active-path" data-old_color="#000000" fill="#FFFFFF"/><path d="m127.640625 361.65625 8.773437 8.777344 236.503907-228.875-12.589844-12.589844zm0 0" data-original="#000000" class="active-path" data-old_color="#000000" fill="#FFFFFF"/><path d="m330.667969 35.316406 11.316406-11.3125 24 24-11.3125 11.316406zm0 0" data-original="#000000" class="active-path" data-old_color="#000000" fill="#FFFFFF"/><path d="m354.667969 11.3125 11.3125-11.3125 28.796875 28.796875-11.3125 11.316406zm0 0" data-original="#000000" class="active-path" data-old_color="#000000" fill="#FFFFFF"/><path d="m437.863281 94.511719 11.316407-11.3125 28.796874 28.796875-11.3125 11.316406zm0 0" data-original="#000000" class="active-path" data-old_color="#000000" fill="#FFFFFF"/><path d="m418.667969 123.316406 11.316406-11.3125 24 24-11.3125 11.316406zm0 0" data-original="#000000" class="active-path" data-old_color="#000000" fill="#FFFFFF"/></g> </svg>
